/* XPM */
static const char * wxc3d_xpm[] = {
"32 32 109 2",
"  	c #FFFFFF",
". 	c #EFEFEF",
"+ 	c #C9CACA",
"@ 	c #AFB0B1",
"# 	c #A4A5A6",
"$ 	c #A2A3A4",
"% 	c #A1A2A3",
"& 	c #A5A5A7",
"* 	c #ABACAD",
"= 	c #C6C6C7",
"- 	c #E9EAEA",
"; 	c #FDFDFD",
"> 	c #CECECF",
", 	c #9FA0A1",
"' 	c #B4B4B5",
") 	c #D9D9D9",
"! 	c #EEEEEE",
"~ 	c #F0F0F0",
"{ 	c #DCDCDD",
"] 	c #B9BABB",
"^ 	c #9C9D9F",
"/ 	c #C7C7C8",
"( 	c #FAFAFA",
"_ 	c #DBDBDC",
": 	c #9A9B9C",
"< 	c #CFD0D0",
"[ 	c #D7D7D8",
"} 	c #9B9C9E",
"| 	c #D2D2D3",
"1 	c #B3B1B2",
"2 	c #AB7271",
"3 	c #E0AEAD",
"4 	c #E1B0AE",
"5 	c #E1AFAE",
"6 	c #B67C7B",
"7 	c #A5A1A2",
"8 	c #9D9697",
"9 	c #C37A78",
"0 	c #DA8784",
"a 	c #CB7F7C",
"b 	c #938587",
"c 	c #F5F5F5",
"d 	c #FEFEFE",
"e 	c #A0999A",
"f 	c #CA7E7C",
"g 	c #D0827F",
"h 	c #948687",
"i 	c #B8B7B8",
"j 	c #C17977",
"k 	c #CB7E7C",
"l 	c #A6A1A3",
"m 	c #E3E3E4",
"n 	c #A57272",
"o 	c #B47675",
"p 	c #D3D3D4",
"q 	c #9A9B9D",
"r 	c #E8D6D6",
"s 	c #E6C7C6",
"t 	c #E8D0D0",
"u 	c #9B9C9D",
"v 	c #DADADB",
"w 	c #D6D6D7",
"x 	c #C8C9C9",
"y 	c #A3A4A5",
"z 	c #9C9D9E",
"A 	c #F8F8F8",
"B 	c #A7A8A9",
"C 	c #B8B8B9",
"D 	c #EBEBEB",
"E 	c #D9DADA",
"F 	c #CDCDCE",
"G 	c #DBDCDC",
"H 	c #BDBEBF",
"I 	c #E3E3E3",
"J 	c #EAD7D7",
"K 	c #E4BFBE",
"L 	c #E9D4D3",
"M 	c #EBDEDE",
"N 	c #E7CDCC",
"O 	c #ADADAF",
"P 	c #AEAFB0",
"Q 	c #E4C1C0",
"R 	c #E3B9B8",
"S 	c #E7CECD",
"T 	c #E0AAA8",
"U 	c #A5A6A7",
"V 	c #A2A2A4",
"W 	c #EADBDA",
"X 	c #E7CAC9",
"Y 	c #E4BDBC",
"Z 	c #E3B8B7",
"` 	c #E8D0CF",
" .	c #EBDCDB",
"..	c #E9D3D2",
"+.	c #E3BBBA",
"@.	c #E8D2D1",
"#.	c #DFA4A3",
"$.	c #E1B8B7",
"%.	c #ECE2E2",
"&.	c #E8CFCF",
"*.	c #EADADA",
"=.	c #DFA4A2",
"-.	c #E6CAC9",
";.	c #E1B0AF",
">.	c #AA6E6E",
",.	c #DFA6A4",
"'.	c #E5C1C0",
").	c #EAD9D8",
"!.	c #B57776",
"                      . + @ # $ % & * = -                       ",
"                ; > , ' ) ! ~ ~ ~ ~ . { ] ^ / (                 ",
"              _ : < ~ ~ ~ ~ ~ ~ ~ ~ ~ ~ ~ ~ [ } |               ",
"          ; 1 2 3 4 4 4 4 4 4 4 4 4 4 4 4 4 4 5 6 7 (           ",
"        ( 8 9 0 0 0 0 0 0 0 0 0 0 0 0 0 0 0 0 0 0 a b c         ",
"      d e f 0 0 0 0 0 0 0 0 0 0 0 0 0 0 0 0 0 0 0 0 g h (       ",
"      i j 0 0 0 0 0 0 0 0 0 0 0 0 0 0 0 0 0 0 0 0 0 0 k l       ",
"    m n 0 0 0 0 0 0 0 0 0 0 0 0 0 0 0 0 0 0 0 0 0 0 0 0 o p     ",
"  d q r s s s s s s s s s s s s s s s s s s s s s s s s t u (   ",
"  v = ~ ~ ~ ~ ~ ~ ~ ~ ~ ~ ~ ~ ~ ~ ~ ~ ~ ~ ~ ~ ~ ~ ~ ~ ~ ~ w x   ",
"  y ! ~ ~ ~ ~ ~ ~ ~ ~ ~ ~ ~ ~ ~ ~ ~ ~ ~ ~ ~ ~ ~ ~ ~ ~ ~ ~ ~ z   ",
"A B ~ ~ ~ ~ ~ ~ ~ ~ ~ ~ ~ ~ ~ ~ ~ ~ ~ ~ ~ ~ ~ ~ ~ ~ ~ ~ ~ ~ C D ",
"E F ~ ~ ~ ~ ~ ~ ~ ~ ~ ~ ~ ~ ~ ~ ~ ~ ~ ~ ~ ~ ~ ~ ~ ~ ~ ~ ~ ~ G / ",
"H I ~ ~ ~ ~ ~ ~ J K K K K L ~ ~ ~ ~ M K K K K N ~ ~ ~ ~ ~ ~ . O ",
"P ~ ~ ~ ~ ~ ~ ~ Q 0 0 0 0 R ~ ~ ~ ~ S 0 0 0 0 T ~ ~ ~ ~ ~ ~ ~ & ",
"U ~ ~ ~ ~ ~ ~ ~ Q 0 0 0 0 R ~ ~ ~ ~ S 0 0 0 0 T ~ ~ ~ ~ ~ ~ ~ V ",
"U ~ ~ ~ ~ ~ ~ ~ Q 0 0 0 0 R ~ ~ ~ ~ S 0 0 0 0 T ~ ~ ~ ~ ~ ~ ~ V ",
"P ~ ~ ~ ~ ~ ~ ~ Q 0 0 0 0 R ~ ~ ~ ~ S 0 0 0 0 T ~ ~ ~ ~ ~ ~ ~ & ",
"H I ~ W X X X X Y Z Z Z Z ` ~ ~ ~ ~  .Z Z Z Z Z X X X X ..~ . O ",
"E F ~ +.0 0 0 0 K ~ ~ ~ ~ ~ ~ ~ ~ ~ ~ ~ ~ ~ ~ @.0 0 0 0 #.~ G / ",
"A B ~ +.0 0 0 0 K ~ ~ ~ ~ ~ ~ ~ ~ ~ ~ ~ ~ ~ ~ @.0 0 0 0 #.~ C D ",
"  y ! +.0 0 0 0 K ~ ~ ~ ~ ~ ~ ~ ~ ~ ~ ~ ~ ~ ~ @.0 0 0 0 #.~ z   ",
"  v = +.0 0 0 0 K ~ ~ ~ ~ ~ ~ ~ ~ ~ ~ ~ ~ ~ ~ @.0 0 0 0 #.w x   ",
"  d q $.0 0 0 0 K ~ ~ ~ ~ %.&.&.&.&.*.~ ~ ~ ~ @.0 0 0 0 =.u (   ",
"    m n 0 0 0 0 K ~ ~ ~ ~ -.0 0 0 0 ;.~ ~ ~ ~ @.0 0 0 0 o p     ",
"      i j 0 0 0 K ~ ~ ~ ~ -.0 0 0 0 ;.~ ~ ~ ~ @.0 0 0 k l       ",
"      d e f 0 0 K ~ ~ ~ ~ -.0 0 0 0 ;.~ ~ ~ ~ @.0 0 g h (       ",
"        ( 8 9 0 K ~ ~ ~ ~ -.0 0 0 0 ;.~ ~ ~ ~ @.0 a b c         ",
"          ; 1 >.-.~ ~ ~ ~ ..,.,.,.,.'.~ ~ ~ ~ ).!.7 (           ",
"              _ : < ~ ~ ~ ~ ~ ~ ~ ~ ~ ~ ~ ~ [ } |               ",
"                ; > , ' ) ! ~ ~ ~ ~ . { ] ^ / (                 ",
"                      . + @ # $ % & * = -                       "};
